<svg xmlns="http://www.w3.org/2000/svg">
    <symbol id="facebook">
            <g>
                <path d="M18.896 0H1.104C.494 0 0 .494 0 1.104v17.793C0 19.506.494 20 1.104 20h9.58v-7.745H8.076V9.237h2.606V7.01c0-2.583 1.578-3.99 3.883-3.99 1.104 0 2.052.082 2.329.119v2.7h-1.598c-1.254 0-1.496.597-1.496 1.47v1.928h2.989l-.39 3.018h-2.6V20h5.098c.608 0 1.102-.494 1.102-1.104V1.104C20 .494 19.506 0 18.896 0z"/>
            </g>
    </symbol>
	<symbol id="twitter">
            <g>
                <path d="M20.667 2.797a8.192 8.192 0 01-2.357.646 4.11 4.11 0 001.804-2.27 8.22 8.22 0 01-2.606.996A4.096 4.096 0 0014.513.873c-2.649 0-4.595 2.472-3.997 5.038a11.648 11.648 0 01-8.457-4.287 4.109 4.109 0 001.27 5.478A4.086 4.086 0 011.47 6.59c-.045 1.901 1.317 3.68 3.29 4.075a4.113 4.113 0 01-1.853.07 4.106 4.106 0 003.834 2.85 8.25 8.25 0 01-6.075 1.7 11.616 11.616 0 006.29 1.843c7.618 0 11.922-6.434 11.662-12.205a8.354 8.354 0 002.048-2.124z"/>
            </g>
    </symbol>
	<symbol id="pinterest">
            <g>
                <path d="M10 0C4.478 0 0 4.477 0 10c0 4.237 2.636 7.855 6.356 9.312-.088-.791-.167-2.005.035-2.868.182-.78 1.172-4.97 1.172-4.97s-.299-.6-.299-1.486c0-1.39.806-2.428 1.81-2.428.852 0 1.264.64 1.264 1.408 0 .858-.545 2.14-.828 3.33-.236.995.5 1.807 1.48 1.807 1.778 0 3.144-1.874 3.144-4.58 0-2.393-1.72-4.068-4.177-4.068-2.845 0-4.515 2.135-4.515 4.34 0 .859.331 1.781.745 2.281a.3.3 0 01.069.288l-.278 1.133c-.044.183-.145.223-.335.134-1.249-.581-2.03-2.407-2.03-3.874 0-3.154 2.292-6.052 6.608-6.052 3.469 0 6.165 2.473 6.165 5.776 0 3.447-2.173 6.22-5.19 6.22-1.013 0-1.965-.525-2.291-1.148l-.623 2.378c-.226.869-.835 1.958-1.244 2.621.937.29 1.931.446 2.962.446 5.522 0 10-4.477 10-10S15.522 0 10 0z"/>
            </g>
    </symbol>
	<symbol id="instagram">
            <g>
                <path d="M10.333 1.802c2.67 0 2.987.01 4.042.059 2.71.123 3.976 1.409 4.1 4.099.048 1.054.057 1.37.057 4.04 0 2.672-.01 2.988-.058 4.042-.124 2.687-1.386 3.975-4.099 4.099-1.055.048-1.37.058-4.042.058-2.67 0-2.986-.01-4.04-.058-2.717-.124-3.976-1.416-4.1-4.1-.048-1.054-.058-1.37-.058-4.041 0-2.67.01-2.986.058-4.04.124-2.69 1.387-3.977 4.1-4.1 1.054-.048 1.37-.058 4.04-.058zm0-1.802C7.618 0 7.278.012 6.211.06 2.579.227.56 2.242.394 5.877.345 6.944.334 7.284.334 10s.011 3.057.06 4.123c.166 3.632 2.181 5.65 5.816 5.817 1.068.048 1.408.06 4.123.06 2.716 0 3.057-.012 4.124-.06 3.628-.167 5.651-2.182 5.816-5.817.049-1.066.06-1.407.06-4.123s-.011-3.056-.06-4.122C20.11 2.249 18.093.228 14.458.06 13.39.01 13.049 0 10.333 0zm0 4.865a5.135 5.135 0 100 10.27 5.135 5.135 0 000-10.27zm0 8.468a3.333 3.333 0 110-6.666 3.333 3.333 0 010 6.666zm5.339-9.87a1.2 1.2 0 10-.001 2.4 1.2 1.2 0 000-2.4z"/>
            </g>
    </symbol>
	<symbol id="youtube">
            <g>
                <path d="M10.333 0c-5.522 0-10 4.478-10 10 0 5.523 4.478 10 10 10 5.523 0 10-4.477 10-10 0-5.522-4.477-10-10-10zm3.701 14.077c-1.752.12-5.653.12-7.402 0C4.735 13.947 4.514 13.018 4.5 10c.014-3.024.237-3.947 2.132-4.077 1.749-.12 5.651-.12 7.402 0 1.898.13 2.118 1.059 2.133 4.077-.015 3.024-.238 3.947-2.133 4.077zM8.667 8.048l4.097 1.949-4.097 1.955V8.048z"/>
            </g>
    </symbol>
	<symbol id="hamburger" viewBox="0 -53 384 384">
            <g>
				<path d="m368 154.667969h-352c-8.832031 0-16-7.167969-16-16s7.167969-16 16-16h352c8.832031 0 16 7.167969 16 16s-7.167969 16-16 16zm0 0"/><path d="m368 32h-352c-8.832031 0-16-7.167969-16-16s7.167969-16 16-16h352c8.832031 0 16 7.167969 16 16s-7.167969 16-16 16zm0 0"/><path d="m368 277.332031h-352c-8.832031 0-16-7.167969-16-16s7.167969-16 16-16h352c8.832031 0 16 7.167969 16 16s-7.167969 16-16 16zm0 0"/>
			</g>
    </symbol>
	<symbol id="search" viewBox="0 0 515.558 515.558">
            <g>
			<path d="m378.344 332.78c25.37-34.645 40.545-77.2 40.545-123.333 0-115.484-93.961-209.445-209.445-209.445s-209.444 93.961-209.444 209.445 93.961 209.445 209.445 209.445c46.133 0 88.692-15.177 123.337-40.547l137.212 137.212 45.564-45.564c0-.001-137.214-137.213-137.214-137.213zm-168.899 21.667c-79.958 0-145-65.042-145-145s65.042-145 145-145 145 65.042 145 145-65.043 145-145 145z"/>
			</g>
    </symbol>
		<symbol id="phone" viewBox="0 0 513.64 513.64">
           <g>
		<path d="M499.66,376.96l-71.68-71.68c-25.6-25.6-69.12-15.359-79.36,17.92c-7.68,23.041-33.28,35.841-56.32,30.72
			c-51.2-12.8-120.32-79.36-133.12-133.12c-7.68-23.041,7.68-48.641,30.72-56.32c33.28-10.24,43.52-53.76,17.92-79.36l-71.68-71.68
			c-20.48-17.92-51.2-17.92-69.12,0l-48.64,48.64c-48.64,51.2,5.12,186.88,125.44,307.2c120.32,120.32,256,176.641,307.2,125.44
			l48.64-48.64C517.581,425.6,517.581,394.88,499.66,376.96z"/>
	</g>
    </symbol>
			<symbol id="navi" viewBox="0 0 477.883 477.883">
        <g>
		<path d="M468.456,1.808c-4.811-2.411-10.478-2.411-15.289,0l0,0L9.433,223.675c-8.429,4.219-11.842,14.471-7.624,22.9
			c2.401,4.798,6.919,8.188,12.197,9.151l176.111,32.034l32.034,176.111c1.311,7.219,7.091,12.793,14.353,13.841
			c0.803,0.116,1.613,0.173,2.423,0.171c6.469,0.003,12.383-3.651,15.275-9.438L476.07,24.711
			C480.292,16.284,476.883,6.03,468.456,1.808z"/>
	</g>
    </symbol>
				<symbol id="mail" viewBox="0 0 512 512">
       <g>
		<path d="M485.743,85.333H26.257C11.815,85.333,0,97.148,0,111.589V400.41c0,14.44,11.815,26.257,26.257,26.257h459.487
			c14.44,0,26.257-11.815,26.257-26.257V111.589C512,97.148,500.185,85.333,485.743,85.333z M475.89,105.024L271.104,258.626
			c-3.682,2.802-9.334,4.555-15.105,4.529c-5.77,0.026-11.421-1.727-15.104-4.529L36.109,105.024H475.89z M366.5,268.761
			l111.59,137.847c0.112,0.138,0.249,0.243,0.368,0.368H33.542c0.118-0.131,0.256-0.23,0.368-0.368L145.5,268.761
			c3.419-4.227,2.771-10.424-1.464-13.851c-4.227-3.419-10.424-2.771-13.844,1.457l-110.5,136.501V117.332l209.394,157.046
			c7.871,5.862,17.447,8.442,26.912,8.468c9.452-0.02,19.036-2.6,26.912-8.468l209.394-157.046v275.534L381.807,256.367
			c-3.42-4.227-9.623-4.877-13.844-1.457C363.729,258.329,363.079,264.534,366.5,268.761z"/>
	</g>
    </symbol>
		<symbol id="trophy" viewBox="0 0 24 24">
       <g>
		<path d="m17.08 14.86c-.233 0-.441-.163-.489-.4-.055-.271.119-.535.39-.589 2.91-.593 5.917-4.421 6.092-9.87h-3.573c-.276-.001-.5-.225-.5-.501s.224-.5.5-.5h4.08c.276 0 .5.224.5.5 0 6.459-3.555 10.668-6.9 11.35-.034.006-.067.01-.1.01z"/><path d="m6.911 14.84c-.036 0-.073-.004-.11-.012-3.297-.74-6.801-4.961-6.801-11.328 0-.276.224-.5.5-.5h4c.276 0 .54.224.54.5s-.184.5-.46.5h-3.572c.174 5.374 3.141 9.208 6.011 9.852.27.061.439.328.378.597-.051.233-.257.391-.486.391z"/><path d="m13.5 21h-3c-.276 0-.5-.224-.5-.5v-3.64c0-.276.224-.5.5-.5s.5.224.5.5v3.14h2v-3.14c0-.276.224-.5.5-.5s.5.224.5.5v3.64c0 .276-.224.5-.5.5z"/><path d="m16.5 24h-9c-.276 0-.5-.224-.5-.5v-1c0-1.378 1.122-2.5 2.5-2.5h5c1.378 0 2.5 1.122 2.5 2.5v1c0 .276-.224.5-.5.5zm-8.5-1h8v-.5c0-.827-.673-1.5-1.5-1.5h-5c-.827 0-1.5.673-1.5 1.5z"/><path d="m12 18c-.054 0-.107-.009-.159-.026-.319-.107-7.799-2.686-7.841-8.971v-7.503c0-.827.673-1.5 1.5-1.5h13c.827 0 1.5.673 1.5 1.5v7.5c0 6.288-7.521 8.868-7.842 8.974-.051.017-.105.026-.158.026zm-6.5-17c-.276 0-.5.224-.5.5v7.5c.034 5.094 5.948 7.568 7 7.968 1.056-.399 7-2.872 7-7.968v-7.5c0-.276-.224-.5-.5-.5z"/>
	</g>
    </symbol>
		<symbol id="store" viewBox="0 0 477.867 477.867">
		 <g>
				<path d="M476.996,114.074l-34.133-102.4C440.541,4.701,434.016-0.002,426.667,0H51.2c-7.349-0.002-13.874,4.701-16.196,11.674
					L0.87,114.074c-0.526,1.594-0.82,3.255-0.87,4.932c0,0.171,0,0.29,0,0.461v17.067c0.062,26.74,12.707,51.892,34.133,67.891
					c0,0.137,0,0.239,0,0.375v221.867c0,28.277,22.923,51.2,51.2,51.2h307.2c28.277,0,51.2-22.923,51.2-51.2V204.8
					c0-0.137,0-0.239,0-0.375c21.426-15.999,34.072-41.151,34.133-67.891v-17.067c0-0.171,0-0.29,0-0.461
					C477.816,117.328,477.523,115.667,476.996,114.074z M358.4,34.133h55.962l22.767,68.267H358.4V34.133z M256,34.133h68.267V102.4
					H256V34.133z M153.6,34.133h68.267V102.4H153.6V34.133z M63.505,34.133h55.962V102.4H40.738L63.505,34.133z M273.067,443.733
					H204.8V307.2h68.267V443.733z M409.6,426.667c0,9.426-7.641,17.067-17.067,17.067H307.2v-153.6
					c0-9.426-7.641-17.067-17.067-17.067h-102.4c-9.426,0-17.067,7.641-17.067,17.067v153.6H85.333
					c-9.426,0-17.067-7.641-17.067-17.067V220.16c23.951,4.917,48.857-0.799,68.267-15.667c30.466,22.376,71.934,22.376,102.4,0
					c30.466,22.376,71.934,22.376,102.4,0c19.41,14.869,44.316,20.584,68.267,15.667V426.667z M392.533,187.733
					c-14.759-0.009-28.774-6.483-38.349-17.715c-6.202-7.097-16.984-7.823-24.081-1.621c-0.576,0.503-1.118,1.045-1.621,1.621
					c-18.977,21.18-51.529,22.965-72.709,3.989c-1.401-1.256-2.733-2.587-3.989-3.989c-6.679-7.097-17.847-7.437-24.945-0.757
					c-0.26,0.245-0.513,0.497-0.757,0.757c-18.976,21.18-51.529,22.965-72.709,3.989c-1.402-1.256-2.733-2.587-3.989-3.989
					c-6.679-7.097-17.848-7.437-24.945-0.757c-0.26,0.245-0.513,0.497-0.757,0.757c-9.575,11.232-23.589,17.706-38.349,17.715
					c-28.277,0-51.2-22.923-51.2-51.2h409.6C443.733,164.81,420.81,187.733,392.533,187.733z"/>
			</g>
    </symbol>
			<symbol id="like-heart" viewBox="0 0 477.534 477.534">
		 <g>
		<path d="M438.482,58.61c-24.7-26.549-59.311-41.655-95.573-41.711c-36.291,0.042-70.938,15.14-95.676,41.694l-8.431,8.909
			l-8.431-8.909C181.284,5.762,98.662,2.728,45.832,51.815c-2.341,2.176-4.602,4.436-6.778,6.778
			c-52.072,56.166-52.072,142.968,0,199.134l187.358,197.581c6.482,6.843,17.284,7.136,24.127,0.654
			c0.224-0.212,0.442-0.43,0.654-0.654l187.29-197.581C490.551,201.567,490.551,114.77,438.482,58.61z M413.787,234.226h-0.017
			L238.802,418.768L63.818,234.226c-39.78-42.916-39.78-109.233,0-152.149c36.125-39.154,97.152-41.609,136.306-5.484
			c1.901,1.754,3.73,3.583,5.484,5.484l20.804,21.948c6.856,6.812,17.925,6.812,24.781,0l20.804-21.931
			c36.125-39.154,97.152-41.609,136.306-5.484c1.901,1.754,3.73,3.583,5.484,5.484C453.913,125.078,454.207,191.516,413.787,234.226
			z"/>
	</g>
    </symbol>
		<symbol id="farmer" viewBox="0 0 512 512">
			<g>
			<path d="m497 181c-8.284 0-15 6.716-15 15v60c0 19.555-12.541 36.228-30 42.42v-102.42c0-8.284-6.716-15-15-15s-15 6.716-15 15v102.42c-17.459-6.192-30-22.865-30-42.42v-60c0-8.284-6.716-15-15-15s-15 6.716-15 15v60c0 36.219 25.808 66.522 60 73.491v31.509h-15c-8.284 0-15 6.716-15 15v28.674c-20.193-28.109-52.298-43.674-85.27-43.674h-35.73v-15.821c31.548-17.94 54.21-49.566 59.706-86.655.06-.35.115-.701.15-1.06.748-5.384 1.144-10.879 1.144-16.464v-95.778c24.847 2.985 42.391 5.556 42.809 5.617 8.193 1.209 15.82-4.452 17.03-12.648 1.21-8.195-4.452-15.82-12.647-17.03-1.574-.232-16.554-2.429-38.079-5.082-14.539-42.512-24.894-67.053-35.165-83.549-8.695-13.965-23.332-32.53-49.948-32.53-20.462 0-35.366 10.204-45 20.083-9.634-9.879-24.538-20.083-45-20.083-26.573 0-40.992 18.638-49.526 32.658-11.271 18.514-22.106 46.786-34.576 83.378-21.545 2.673-36.543 4.894-38.11 5.128-8.194 1.222-13.845 8.855-12.623 17.049 1.221 8.186 8.847 13.847 17.049 12.623.415-.062 17.951-2.658 42.787-5.662v95.826c0 44.062 23.953 82.992 60 103.891v16.109h-34.73c-47.696 0-91.079 32.39-102.881 79.599l-12.958 52.828c-1.097 4.475-.078 9.206 2.766 12.831 2.843 3.625 7.195 5.742 11.802 5.742h452c8.284 0 15-6.716 15-15v-121c0-8.284-6.716-15-15-15h-15v-31.509c34.192-6.968 60-37.271 60-73.491v-60c0-8.284-6.716-15-15-15zm-406 301h-56.876l8.386-34.19c6.142-24.568 24.982-44.103 48.491-52.435v86.625zm75-452c20.134 0 31.514 21.576 31.583 21.708 2.505 5.178 7.643 8.51 13.395 8.51s10.89-3.246 13.395-8.424c.113-.218 11.493-21.794 31.627-21.794 16.945 0 29.945 19.823 52.035 82.288-31.404-3.315-67.737-6.288-97.035-6.288-29.115 0-64.978 2.936-96.03 6.226 22.238-63.161 34.562-82.226 51.03-82.226zm-45 111.789c29.652-3.093 63.182-5.789 90-5.789 26.991 0 60.983 2.733 91 5.854v97.475c-10.984-2.398-21.138-7.071-31.703-11.946-16.639-7.679-35.498-16.383-59.297-16.383-23.844 0-42.451 8.722-58.867 16.418-10.346 4.85-20.291 9.499-31.133 11.896zm4.473 127.235c14.962-3.01 27.746-8.981 39.394-14.442 14.899-6.985 28.972-13.582 46.133-13.582 17.21 0 31.547 6.617 46.726 13.622 11.796 5.444 24.739 11.396 39.752 14.4-12.132 36.533-46.815 61.978-86.478 61.978-39.845 0-73.72-26.03-85.527-61.976zm115.527 88.241v18.735c0 16.542-13.458 30-30 30s-30-13.458-30-30v-18.797c9.592 2.478 19.645 3.797 30 3.797 10.352 0 20.403-1.298 30-3.735zm61 124.735h-181v-91h31.899c6.678 25.849 30.195 45 58.101 45s51.424-19.151 58.101-45h32.899zm30 0v-86.631c23.097 8.244 41.263 27.53 47.475 52.376l8.402 34.255zm120 0h-30v-91h30z"/>
			</g>
    </symbol>
	<symbol id="clock" viewBox="0 0 384 384">
			<g>
			<path d="m343.59375 101.039062c-7.953125 3.847657-11.28125 13.417969-7.433594 21.367188 10.511719 21.714844 15.839844 45.121094 15.839844 69.59375 0 88.222656-71.777344 160-160 160s-160-71.777344-160-160 71.777344-160 160-160c36.558594 0 70.902344 11.9375 99.328125 34.519531 6.894531 5.503907 16.976563 4.351563 22.480469-2.566406 5.503906-6.914063 4.351562-16.984375-2.570313-22.480469-33.652343-26.746094-76-41.472656-119.238281-41.472656-105.863281 0-192 86.136719-192 192s86.136719 192 192 192 192-86.136719 192-192c0-29.335938-6.40625-57.449219-19.039062-83.527344-3.839844-7.96875-13.441407-11.289062-21.367188-7.433594zm0 0"/><path d="m192 64c-8.832031 0-16 7.167969-16 16v112c0 8.832031 7.167969 16 16 16h80c8.832031 0 16-7.167969 16-16s-7.167969-16-16-16h-64v-96c0-8.832031-7.167969-16-16-16zm0 0"/>
			</g>
    </symbol>
	<symbol id="arrow-up"  viewBox="0 0 490.523 490.523">
			<g>
			<path style="fill:#FFC107;" d="M487.411,355.047L252.744,120.38c-4.165-4.164-10.917-4.164-15.083,0L2.994,355.047
	c-4.093,4.237-3.976,10.99,0.262,15.083c4.134,3.993,10.687,3.993,14.821,0l227.115-227.115l227.115,227.136
	c4.237,4.093,10.99,3.976,15.083-0.261c3.993-4.134,3.993-10.688,0-14.821L487.411,355.047z"/>
<path d="M479.859,373.266c-2.831,0.005-5.548-1.115-7.552-3.115L245.192,143.015L18.077,370.151
	c-4.237,4.093-10.99,3.976-15.083-0.262c-3.993-4.134-3.993-10.687,0-14.821l234.667-234.667c4.165-4.164,10.917-4.164,15.083,0
	l234.667,234.667c4.159,4.172,4.148,10.926-0.024,15.085C485.388,372.146,482.681,373.265,479.859,373.266z"/>
			</g>
    </symbol>
	<symbol id="cart"  viewBox="0 0 450.391 450.391">
			<g>
			 <path
                        
                        d="M143.673,350.322c-25.969,0-47.02,21.052-47.02,47.02c0,25.969,21.052,47.02,47.02,47.02
				c25.969,0,47.02-21.052,47.02-47.02C190.694,371.374,169.642,350.322,143.673,350.322z M143.673,423.465
				c-14.427,0-26.122-11.695-26.122-26.122c0-14.427,11.695-26.122,26.122-26.122c14.427,0,26.122,11.695,26.122,26.122
				C169.796,411.77,158.1,423.465,143.673,423.465z"
                      />
                      <path
                        
                        d="M342.204,350.322c-25.969,0-47.02,21.052-47.02,47.02c0,25.969,21.052,47.02,47.02,47.02s47.02-21.052,47.02-47.02
				C389.224,371.374,368.173,350.322,342.204,350.322z M342.204,423.465c-14.427,0-26.122-11.695-26.122-26.122
				c0-14.427,11.695-26.122,26.122-26.122s26.122,11.695,26.122,26.122C368.327,411.77,356.631,423.465,342.204,423.465z"
                      />
                      <path
                       
                        d="M448.261,76.037c-2.176-2.377-5.153-3.865-8.359-4.18L99.788,67.155L90.384,38.42
				C83.759,19.211,65.771,6.243,45.453,6.028H10.449C4.678,6.028,0,10.706,0,16.477s4.678,10.449,10.449,10.449h35.004
				c11.361,0.251,21.365,7.546,25.078,18.286l66.351,200.098l-5.224,12.016c-5.827,15.026-4.077,31.938,4.702,45.453
				c8.695,13.274,23.323,21.466,39.184,21.943h203.233c5.771,0,10.449-4.678,10.449-10.449c0-5.771-4.678-10.449-10.449-10.449
				H175.543c-8.957-0.224-17.202-4.936-21.943-12.539c-4.688-7.51-5.651-16.762-2.612-25.078l4.18-9.404l219.951-22.988
				c24.16-2.661,44.034-20.233,49.633-43.886l25.078-105.012C450.96,81.893,450.36,78.492,448.261,76.037z M404.376,185.228
				c-3.392,15.226-16.319,26.457-31.869,27.69l-217.339,22.465L106.58,88.053l320.261,4.702L404.376,185.228z"
                      />
			</g>
    </symbol>
</svg>


