<?xml version="1.0" encoding="iso-8859-1"?>
<!-- Generator: Adobe Illustrator 16.0.0, SVG Export Plug-In . SVG Version: 6.00 Build 0)  -->
<!DOCTYPE svg PUBLIC "-//W3C//DTD SVG 1.1//EN" "http://www.w3.org/Graphics/SVG/1.1/DTD/svg11.dtd">
<svg version="1.1" id="Capa_1" xmlns="http://www.w3.org/2000/svg" xmlns:xlink="http://www.w3.org/1999/xlink" x="0px" y="0px"
	 width="28.932px" height="28.932px" viewBox="0 0 28.932 28.932" style="enable-background:new 0 0 28.932 28.932;"
	 xml:space="preserve">
<g>
	<path d="M28.345,25.517L22.229,19.4c3.43-4.791,3.01-11.508-1.289-15.809C18.624,1.276,15.544,0,12.267,0
		C8.991,0,5.911,1.275,3.595,3.592c-2.317,2.317-3.593,5.397-3.593,8.674c0,3.275,1.276,6.356,3.593,8.674
		c2.316,2.315,5.396,3.592,8.672,3.592c2.599,0,5.066-0.812,7.136-2.301l6.115,6.114c0.391,0.392,0.901,0.587,1.414,0.587
		c0.512,0,1.023-0.195,1.414-0.587C29.125,27.564,29.125,26.296,28.345,25.517z M6.422,18.111c-1.562-1.562-2.421-3.64-2.421-5.847
		c0-2.208,0.86-4.283,2.422-5.846c1.561-1.561,3.636-2.42,5.844-2.42s4.284,0.859,5.845,2.42c3.223,3.224,3.223,8.467,0,11.69
		c-1.561,1.561-3.637,2.42-5.845,2.42C10.058,20.529,7.982,19.671,6.422,18.111z M18.466,12.381c0,1.104-0.896,2-2,2h-2.25v2.25
		c0,1.104-0.896,2-2,2s-2-0.896-2-2v-2.25h-2.25c-1.104,0-2-0.896-2-2s0.896-2,2-2h2.25v-2.25c0-1.104,0.896-2,2-2s2,0.896,2,2v2.25
		h2.25C17.57,10.381,18.466,11.278,18.466,12.381z" fill="white"/>
</g>
<g>
</g>
<g>
</g>
<g>
</g>
<g>
</g>
<g>
</g>
<g>
</g>
<g>
</g>
<g>
</g>
<g>
</g>
<g>
</g>
<g>
</g>
<g>
</g>
<g>
</g>
<g>
</g>
<g>
</g>
</svg>
