<?xml version="1.0" encoding="iso-8859-1"?>
<!-- Generator: Adobe Illustrator 19.0.0, SVG Export Plug-In . SVG Version: 6.00 Build 0)  -->
<svg version="1.1" id="Capa_1" xmlns="http://www.w3.org/2000/svg" xmlns:xlink="http://www.w3.org/1999/xlink" x="0px" y="0px"
	 viewBox="0 0 468.293 468.293" style="enable-background:new 0 0 468.293 468.293;" xml:space="preserve">
<path style="fill:#3A556A;" d="M75.401,378.13V90.163c0-6.897,5.591-12.488,12.488-12.488H363.82
	c6.897,0,12.488,5.591,12.488,12.488V378.13c0,6.897-5.591,12.488-12.488,12.488H87.889
	C80.992,390.618,75.401,385.027,75.401,378.13z"/>
<path style="fill:#FCD462;" d="M345.766,372.563H105.944c-6.897,0-12.488-5.591-12.488-12.488V108.217
	c0-6.897,5.591-12.488,12.488-12.488h239.822c6.897,0,12.488,5.591,12.488,12.488v251.858
	C358.254,366.972,352.663,372.563,345.766,372.563z"/>
<g>
	<path style="fill:#64798A;" d="M376.306,205.638h4.098c6.897,0,12.488-5.591,12.488-12.488v-37.777
		c0-6.897-5.591-12.488-12.488-12.488h-4.098V205.638z"/>
	<path style="fill:#64798A;" d="M376.306,325.407h4.098c6.897,0,12.488-5.591,12.488-12.488v-37.777
		c0-6.897-5.591-12.488-12.488-12.488h-4.098V325.407z"/>
	<path style="fill:#64798A;" d="M352.675,77.675H99.035l31.011-63.659C134.207,5.474,143.256,0,153.217,0h145.276
		c9.961,0,19.01,5.474,23.171,14.016L352.675,77.675z"/>
	<path style="fill:#64798A;" d="M352.675,390.618H99.035l31.011,63.659c4.161,8.542,13.211,14.016,23.171,14.016h145.276
		c9.961,0,19.01-5.474,23.171-14.016L352.675,390.618z"/>
</g>
<path style="fill:#27A2DB;" d="M225.854,187.781c-25.607,0-46.365,20.758-46.365,46.365s20.758,46.366,46.365,46.366
	c25.607,0,46.365-20.759,46.365-46.366S251.461,187.781,225.854,187.781z"/>
<g>
	<path style="fill:#1C75A1;" d="M225.854,168.121c12.804,0,23.183-10.379,23.183-23.182c0-12.803-10.379-23.183-23.183-23.183
		c-12.803,0-23.183,10.38-23.183,23.183C202.671,157.742,213.05,168.121,225.854,168.121z"/>
	<path style="fill:#1C75A1;" d="M225.854,300.171c-12.803,0-23.183,10.379-23.183,23.183c0,12.803,10.379,23.182,23.183,23.182
		c12.804,0,23.183-10.379,23.183-23.182C249.036,310.55,238.657,300.171,225.854,300.171z"/>
</g>
<g>
	<path style="fill:#DC8744;" d="M305.326,154.674c-9.053-9.053-23.732-9.053-32.785,0c-9.053,9.053-9.053,23.732,0,32.785
		c9.054,9.054,23.732,9.053,32.785,0C314.379,178.405,314.379,163.727,305.326,154.674z"/>
	<path style="fill:#DC8744;" d="M146.383,280.833c-9.053,9.054-9.053,23.732,0,32.786c9.053,9.053,23.732,9.053,32.785,0
		c9.053-9.053,9.053-23.732,0-32.786C170.114,271.78,155.436,271.78,146.383,280.833z"/>
</g>
<g>
	<path style="fill:#E56353;" d="M315.062,210.963c-12.803,0-23.183,10.38-23.183,23.183c0,12.803,10.38,23.183,23.183,23.183
		s23.183-10.38,23.183-23.183C338.245,221.343,327.865,210.963,315.062,210.963z"/>
	<path style="fill:#E56353;" d="M136.647,210.964c-12.803,0-23.182,10.38-23.182,23.183c0,12.803,10.379,23.182,23.183,23.182
		c12.803,0,23.183-10.379,23.182-23.183C159.83,221.343,149.45,210.964,136.647,210.964z"/>
</g>
<g>
	<path style="fill:#44C4A1;" d="M305.327,280.833c-9.054-9.053-23.732-9.053-32.785,0.001c-9.053,9.053-9.053,23.732,0,32.785
		c9.054,9.053,23.732,9.053,32.785,0C314.381,304.565,314.381,289.886,305.327,280.833z"/>
	<path style="fill:#44C4A1;" d="M146.382,154.675c-9.053,9.053-9.053,23.732,0,32.785c9.053,9.053,23.732,9.053,32.785,0
		c9.053-9.053,9.053-23.732,0-32.785C170.114,145.622,155.436,145.622,146.382,154.675z"/>
</g>
<g>
</g>
<g>
</g>
<g>
</g>
<g>
</g>
<g>
</g>
<g>
</g>
<g>
</g>
<g>
</g>
<g>
</g>
<g>
</g>
<g>
</g>
<g>
</g>
<g>
</g>
<g>
</g>
<g>
</g>
</svg>
