<?xml version="1.0" encoding="iso-8859-1"?>
<!-- Generator: Adobe Illustrator 19.0.0, SVG Export Plug-In . SVG Version: 6.00 Build 0)  -->
<svg version="1.1" id="Capa_1" xmlns="http://www.w3.org/2000/svg" xmlns:xlink="http://www.w3.org/1999/xlink" x="0px" y="0px"
	 viewBox="0 0 468.296 468.296" style="enable-background:new 0 0 468.296 468.296;" xml:space="preserve">
<rect x="49.268" y="121.041" style="fill:#EBF0F3;" width="402.107" height="54.846"/>
<rect x="49.268" y="175.888" style="fill:#E1E6E9;" width="402.107" height="32.169"/>
<rect x="49.268" y="430.77" style="fill:#3A556A;" width="402.107" height="37.526"/>
<rect x="49.268" y="208.737" style="fill:#27A2DB;" width="402.107" height="223.057"/>
<circle style="fill:#E1E6E9;" cx="250.309" cy="320.265" r="80.415"/>
<path style="fill:#E56353;" d="M306.629,320.253c0,3.184-1.561,6.369-4.683,8.305l-71.742,43.895
	c-6.431,3.996-14.736-0.687-14.736-8.242v-87.914c0-7.555,8.305-12.176,14.736-8.242l71.742,43.957
	C305.068,313.884,306.629,317.069,306.629,320.253z"/>
<g>
	<polygon style="fill:#3EA69B;" points="199.775,121.039 167.199,121.039 198.621,175.885 231.197,175.885 	"/>
	<polygon style="fill:#3EA69B;" points="451.354,170.937 451.354,121.039 422.765,121.039 	"/>
	<polygon style="fill:#3EA69B;" points="250.889,121.039 218.313,121.039 249.735,175.885 282.311,175.885 	"/>
	<polygon style="fill:#3EA69B;" points="148.661,121.039 116.085,121.039 147.507,175.885 180.083,175.885 	"/>
	<polygon style="fill:#3EA69B;" points="96.393,175.885 128.969,175.885 97.547,121.039 64.971,121.039 	"/>
	<polygon style="fill:#3EA69B;" points="302.003,121.039 269.427,121.039 300.849,175.885 333.425,175.885 	"/>
	<polygon style="fill:#3EA69B;" points="49.27,125.989 49.27,175.885 77.855,175.885 	"/>
	<polygon style="fill:#3EA69B;" points="404.227,121.039 371.651,121.039 403.075,175.885 435.651,175.885 	"/>
	<polygon style="fill:#3EA69B;" points="353.113,121.039 320.541,121.039 351.963,175.885 384.537,175.885 	"/>
</g>
<rect x="50.704" y="33.175" transform="matrix(-0.9848 0.1734 -0.1734 -0.9848 495.226 75.8951)" style="fill:#EBF0F3;" width="387.186" height="52.817"/>
<g>
	<polygon style="fill:#3EA69B;" points="191.792,42.018 160.898,47.458 199.857,94.225 230.751,88.785 	"/>
	<polygon style="fill:#3EA69B;" points="438.716,47.325 430.383,0.003 403.27,4.778 	"/>
	<polygon style="fill:#3EA69B;" points="240.267,33.481 209.373,38.922 248.332,85.689 279.227,80.249 	"/>
	<polygon style="fill:#3EA69B;" points="143.317,50.554 112.423,55.994 151.382,102.762 182.276,97.321 	"/>
	<polygon style="fill:#3EA69B;" points="102.907,111.298 133.801,105.857 94.842,59.09 63.948,64.53 	"/>
	<polygon style="fill:#3EA69B;" points="288.742,24.945 257.848,30.386 296.807,77.153 327.702,71.713 	"/>
	<polygon style="fill:#3EA69B;" points="49.883,71.847 58.216,119.167 85.326,114.394 	"/>
	<polygon style="fill:#3EA69B;" points="385.689,7.874 354.795,13.314 393.756,60.081 424.65,54.641 	"/>
	<polygon style="fill:#3EA69B;" points="337.214,16.41 306.324,21.849 345.282,68.617 376.175,63.177 	"/>
</g>
<path style="fill:#1C75A1;" d="M20.578,111.158l22.522-22.523c4.877-4.877,12.784-4.877,17.66,0l20.269,20.269
	c4.877,4.877,4.877,12.784,0,17.66l-22.522,22.523c-4.877,4.877-12.784,4.877-17.66,0l-20.269-20.269
	C15.701,123.942,15.701,116.035,20.578,111.158z"/>
<circle style="fill:#E1E6E9;" cx="50.804" cy="118.862" r="15.391"/>
<g>
</g>
<g>
</g>
<g>
</g>
<g>
</g>
<g>
</g>
<g>
</g>
<g>
</g>
<g>
</g>
<g>
</g>
<g>
</g>
<g>
</g>
<g>
</g>
<g>
</g>
<g>
</g>
<g>
</g>
</svg>
