<?xml version="1.0" encoding="iso-8859-1"?>
<!-- Generator: Adobe Illustrator 19.0.0, SVG Export Plug-In . SVG Version: 6.00 Build 0)  -->
<svg version="1.1" id="Capa_1" xmlns="http://www.w3.org/2000/svg" xmlns:xlink="http://www.w3.org/1999/xlink" x="0px" y="0px"
	 viewBox="0 0 468.293 468.293" style="enable-background:new 0 0 468.293 468.293;" xml:space="preserve">
<path style="fill:#44C4A1;" d="M245.417,461.58c-4.867,8.95-17.673,8.95-22.541,0C188.857,399.022,89.527,210.706,89.527,144.619
	C89.527,64.876,154.404,0,234.146,0s144.619,64.876,144.619,144.619C378.765,210.706,279.436,399.022,245.417,461.58z"/>
<circle style="fill:#EBF0F3;" cx="234.146" cy="144.621" r="96.019"/>
<path style="fill:#27A2DB;" d="M305.577,144.609c0,3.684-1.811,7.306-5.495,9.366l-95.719,53.573
	c-7.118,3.934-15.922-1.186-15.922-9.366V91.036c0-8.179,8.804-13.3,15.922-9.303l95.719,53.572
	C303.766,137.303,305.577,140.987,305.577,144.609z"/>
<g>
</g>
<g>
</g>
<g>
</g>
<g>
</g>
<g>
</g>
<g>
</g>
<g>
</g>
<g>
</g>
<g>
</g>
<g>
</g>
<g>
</g>
<g>
</g>
<g>
</g>
<g>
</g>
<g>
</g>
</svg>
