<?xml version="1.0" encoding="iso-8859-1"?>
<!-- Generator: Adobe Illustrator 19.0.0, SVG Export Plug-In . SVG Version: 6.00 Build 0)  -->
<svg version="1.1" id="Capa_1" xmlns="http://www.w3.org/2000/svg" xmlns:xlink="http://www.w3.org/1999/xlink" x="0px" y="0px"
	 viewBox="0 0 467.668 467.668" style="enable-background:new 0 0 467.668 467.668;" xml:space="preserve">
<rect x="101.463" y="52.449" style="fill:#EBF0F3;" width="264.741" height="345.288"/>
<g>
	<path style="fill:#64798A;" d="M366.205,52.449H101.463V24.976C101.463,11.239,112.702,0,126.439,0h214.79
		c13.737,0,24.976,11.239,24.976,24.976V52.449z"/>
	<path style="fill:#64798A;" d="M366.205,397.737H101.463v44.956c0,13.737,11.239,24.976,24.976,24.976h214.79
		c13.737,0,24.976-11.239,24.976-24.976V397.737z"/>
</g>
<g>
	<circle style="fill:#2F4859;" cx="233.834" cy="433.327" r="24.976"/>
	<path style="fill:#2F4859;" d="M266.302,32.468h-64.937c-3.122,0-5.62-2.498-5.62-5.62l0,0c0-3.122,2.498-5.62,5.62-5.62h64.312
		c3.122,0,5.62,2.498,5.62,5.62l0,0C271.922,29.346,269.424,32.468,266.302,32.468z"/>
</g>
<g>
	<path style="fill:#44C4A1;" d="M308.761,150.478c-21.854-21.854-49.951-33.717-80.546-33.717v17.483
		c25.6,0,49.951,9.99,68.059,28.098s28.098,42.459,28.098,68.059h17.483C341.854,201.054,329.99,172.332,308.761,150.478z"/>
	<path style="fill:#44C4A1;" d="M227.59,157.971v17.483c30.595,0,55.571,24.976,55.571,55.571h17.483
		C300.644,191.063,268.176,157.971,227.59,157.971z"/>
	<path style="fill:#44C4A1;" d="M227.59,199.18v17.483c8.117,0,14.361,6.244,14.361,14.361h17.483
		C260.059,213.541,245.698,199.18,227.59,199.18z"/>
</g>
<path style="fill:#E56353;" d="M301.268,302.205c-1.249,1.873-3.122,4.371-4.995,7.493c-7.493,9.99-19.356,23.727-27.473,23.727
	c-50.576,0-142.985-92.41-142.985-142.985c0-8.117,13.737-20.605,23.727-27.473c2.498-1.873,5.62-3.746,6.868-4.995
	c1.873-1.249,4.995-1.249,6.868,0.624l17.483,18.107c2.498,2.498,1.873,5.62,0,8.117c-1.873,1.249-3.122,3.122-4.995,4.995
	c-3.122,3.122-4.995,6.244-4.995,8.741c0,31.844,58.068,89.912,89.912,89.912c2.498,0,5.62-1.873,8.741-4.995
	c1.873-1.249,3.122-3.122,4.995-4.995c1.873-2.498,5.62-2.498,8.117,0l17.483,18.107
	C302.517,297.21,302.517,300.332,301.268,302.205z"/>
<g>
	<path style="fill:#D15241;" d="M301.268,302.205c1.249-1.873,1.249-4.995-0.624-6.868l-18.107-17.483
		c-2.498-2.498-5.62-1.873-8.117,0c-1.249,1.873-3.122,3.746-4.995,4.995l26.224,26.224
		C298.146,306.576,300.019,304.078,301.268,302.205z"/>
	<path style="fill:#D15241;" d="M181.385,184.819c2.498-1.873,2.498-5.62,0-8.117l-18.107-18.107
		c-1.873-1.873-4.371-1.873-6.868-0.624c-1.873,1.249-4.371,3.122-6.868,4.995l26.224,26.224
		C177.639,187.941,179.512,186.068,181.385,184.819z"/>
</g>
<g>
</g>
<g>
</g>
<g>
</g>
<g>
</g>
<g>
</g>
<g>
</g>
<g>
</g>
<g>
</g>
<g>
</g>
<g>
</g>
<g>
</g>
<g>
</g>
<g>
</g>
<g>
</g>
<g>
</g>
</svg>
