<?xml version="1.0" encoding="iso-8859-1"?>
<!-- Generator: Adobe Illustrator 19.0.0, SVG Export Plug-In . SVG Version: 6.00 Build 0)  -->
<svg version="1.1" id="Capa_1" xmlns="http://www.w3.org/2000/svg" xmlns:xlink="http://www.w3.org/1999/xlink" x="0px" y="0px"
	 viewBox="0 0 468.292 468.292" style="enable-background:new 0 0 468.292 468.292;" xml:space="preserve">
<path style="fill:#D5D6DB;" d="M414.124,335.651H2.724V82.579c0-6.897,5.591-12.488,12.488-12.488h386.424
	c6.897,0,12.488,5.591,12.488,12.488V335.651z"/>
<path style="fill:#64798A;" d="M414.124,335.651H2.724v52.221c0,6.897,5.591,12.488,12.488,12.488h386.424
	c6.897,0,12.488-5.591,12.488-12.488V335.651z"/>
<rect x="22.128" y="89.5" style="fill:#EBF0F3;" width="372.586" height="226.716"/>
<polygon style="fill:#E1E6E9;" points="22.131,316.243 394.716,89.499 394.716,316.243 "/>
<path style="fill:#D5D6DB;" d="M222.148,354.28l-27.449,27.449c3.513,3.513,8.365,5.685,13.724,5.685
	c10.72,0,19.409-8.69,19.409-19.409C227.832,362.645,225.66,357.793,222.148,354.28z"/>
<g>
	<path style="fill:#E1E6E9;" d="M208.423,348.596c-10.718,0-19.409,8.69-19.409,19.409c0,5.359,2.173,10.211,5.685,13.724
		l27.449-27.449C218.636,350.768,213.784,348.596,208.423,348.596z"/>
	<polygon style="fill:#E1E6E9;" points="155.108,400.359 261.739,400.359 278.744,446.553 138.103,446.553 	"/>
</g>
<path style="fill:#D5D6DB;" d="M281.548,446.553h-146.25c-5.467,0-9.899,4.432-9.899,9.898v1.943c0,5.467,4.432,9.899,9.899,9.899
	h146.25c5.466,0,9.898-4.432,9.898-9.899v-1.943C291.447,450.985,287.015,446.553,281.548,446.553z"/>
<path style="fill:#27A2DB;" d="M336.352,244.428H453.08c6.897,0,12.488-5.591,12.488-12.488V12.488
	C465.568,5.591,459.977,0,453.08,0H336.352c-6.897,0-12.488,5.591-12.488,12.488V231.94
	C323.864,238.837,329.455,244.428,336.352,244.428z"/>
<rect x="336.421" y="37.988" style="fill:#EBF0F3;" width="116.561" height="160.206"/>
<g>
	<path style="fill:#E1E6E9;" d="M407.586,24.135h-45.487c-2.586,0-4.683-2.097-4.683-4.683v-0.919c0-2.586,2.097-4.683,4.683-4.683
		h45.487c2.586,0,4.683,2.097,4.683,4.683v0.919C412.269,22.038,410.172,24.135,407.586,24.135z"/>
	<circle style="fill:#E1E6E9;" cx="426.877" cy="18.994" r="5.145"/>
</g>
<path style="fill:#D5D6DB;" d="M406.917,231.242h-24.402c-3.448,0-6.244-2.795-6.244-6.244v-7.375c0-3.448,2.796-6.244,6.244-6.244
	h24.402c3.448,0,6.244,2.795,6.244,6.244v7.375C413.161,228.446,410.366,231.242,406.917,231.242z"/>
<g>
</g>
<g>
</g>
<g>
</g>
<g>
</g>
<g>
</g>
<g>
</g>
<g>
</g>
<g>
</g>
<g>
</g>
<g>
</g>
<g>
</g>
<g>
</g>
<g>
</g>
<g>
</g>
<g>
</g>
</svg>
