<?xml version="1.0" encoding="iso-8859-1"?>
<!-- Generator: Adobe Illustrator 19.0.0, SVG Export Plug-In . SVG Version: 6.00 Build 0)  -->
<svg version="1.1" id="Capa_1" xmlns="http://www.w3.org/2000/svg" xmlns:xlink="http://www.w3.org/1999/xlink" x="0px" y="0px"
	 viewBox="0 0 468.293 468.293" style="enable-background:new 0 0 468.293 468.293;" xml:space="preserve">
<rect x="1.929" y="91.998" style="fill:#EBF0F3;" width="466.357" height="284.297"/>
<polygon style="fill:#E1E6E9;" points="233.181,193.008 0,376.294 466.362,376.294 "/>
<path style="fill:#D5D6DB;" d="M211.608,284.233L0,91.999h466.362L254.753,284.233C242.712,295.172,223.65,295.172,211.608,284.233z
	"/>
<path style="fill:#E1E6E9;" d="M211.608,258.328L0,91.999h466.362L254.753,258.328C242.712,267.793,223.65,267.793,211.608,258.328z
	"/>
<g>
	<polygon style="fill:#27A2DB;" points="200.255,91.999 181.861,91.999 173.134,112.551 191.528,112.551 	"/>
	<polygon style="fill:#27A2DB;" points="262.239,91.999 243.839,91.999 235.112,112.551 253.512,112.551 	"/>
</g>
<g>
	<polygon style="fill:#F6C358;" points="231.244,91.999 212.85,91.999 204.123,112.551 222.517,112.551 	"/>
	<polygon style="fill:#F6C358;" points="169.266,91.999 150.866,91.999 142.139,112.551 160.539,112.551 	"/>
	<polygon style="fill:#F6C358;" points="107.283,91.999 88.883,91.999 80.156,112.551 98.556,112.551 	"/>
</g>
<g>
	<polygon style="fill:#27A2DB;" points="138.272,91.999 119.878,91.999 111.151,112.551 129.545,112.551 	"/>
	<polygon style="fill:#27A2DB;" points="49.167,112.551 67.561,112.551 76.288,91.999 57.894,91.999 	"/>
</g>
<g>
	<polygon style="fill:#F6C358;" points="417.194,91.999 398.795,91.999 390.068,112.551 408.467,112.551 	"/>
	<polygon style="fill:#F6C358;" points="293.227,91.999 274.833,91.999 266.106,112.551 284.5,112.551 	"/>
</g>
<g>
	<polygon style="fill:#27A2DB;" points="386.2,91.999 367.806,91.999 359.079,112.551 377.473,112.551 	"/>
	<polygon style="fill:#27A2DB;" points="324.222,91.999 305.822,91.999 297.095,112.551 315.495,112.551 	"/>
</g>
<polygon style="fill:#F6C358;" points="355.211,91.999 336.817,91.999 328.09,112.551 346.484,112.551 "/>
<g>
	<polygon style="fill:#27A2DB;" points="1.931,264.152 1.931,280.915 21.273,288.868 21.273,272.105 	"/>
	<polygon style="fill:#27A2DB;" points="1.931,207.666 1.931,224.433 21.273,232.386 21.273,215.619 	"/>
</g>
<g>
	<polygon style="fill:#3EA69B;" points="1.931,235.911 1.931,252.674 21.273,260.627 21.273,243.864 	"/>
	<polygon style="fill:#3EA69B;" points="1.931,292.393 1.931,309.16 21.273,317.113 21.273,300.346 	"/>
</g>
<g>
	<polygon style="fill:#27A2DB;" points="1.931,320.638 1.931,337.401 21.273,345.354 21.273,328.591 	"/>
	<polygon style="fill:#27A2DB;" points="1.931,179.425 1.931,196.188 21.273,204.141 21.273,187.378 	"/>
</g>
<polygon style="fill:#3EA69B;" points="1.931,151.179 1.931,167.947 21.273,175.9 21.273,159.132 "/>
<g>
	<polygon style="fill:#27A2DB;" points="1.931,122.939 1.931,139.701 21.273,147.654 21.273,130.892 	"/>
	<polygon style="fill:#27A2DB;" points="448.951,264.152 448.951,280.915 468.293,288.868 468.293,272.105 	"/>
	<polygon style="fill:#27A2DB;" points="448.95,207.666 448.95,224.433 468.293,232.386 468.293,215.619 	"/>
</g>
<g>
	<polygon style="fill:#3EA69B;" points="448.95,235.911 448.951,252.674 468.293,260.627 468.293,243.864 	"/>
	<polygon style="fill:#3EA69B;" points="448.951,292.393 448.951,309.16 468.293,317.113 468.293,300.346 	"/>
</g>
<polygon style="fill:#27A2DB;" points="448.951,320.638 448.951,337.401 468.293,345.354 468.293,328.591 "/>
<polygon style="fill:#3EA69B;" points="448.95,179.425 448.95,196.188 468.293,204.141 468.293,187.378 "/>
<polygon style="fill:#27A2DB;" points="448.95,151.179 448.95,167.947 468.293,175.9 468.293,159.132 "/>
<polygon style="fill:#3EA69B;" points="448.95,122.939 448.95,139.701 468.293,147.654 468.293,130.892 "/>
<g>
	<polygon style="fill:#27A2DB;" points="202.186,355.741 183.792,355.741 175.065,376.294 193.459,376.294 	"/>
	<polygon style="fill:#27A2DB;" points="264.17,355.741 245.77,355.741 237.043,376.294 255.443,376.294 	"/>
</g>
<g>
	<polygon style="fill:#F6C358;" points="233.175,355.741 214.781,355.741 206.054,376.294 224.448,376.294 	"/>
	<polygon style="fill:#F6C358;" points="171.197,355.741 152.798,355.741 144.071,376.294 162.47,376.294 	"/>
	<polygon style="fill:#F6C358;" points="109.214,355.741 90.814,355.741 82.087,376.294 100.487,376.294 	"/>
</g>
<g>
	<polygon style="fill:#27A2DB;" points="140.203,355.741 121.809,355.741 113.082,376.294 131.476,376.294 	"/>
	<polygon style="fill:#27A2DB;" points="51.098,376.294 69.492,376.294 78.219,355.741 59.825,355.741 	"/>
</g>
<g>
	<polygon style="fill:#F6C358;" points="419.126,355.741 400.726,355.741 391.999,376.294 410.399,376.294 	"/>
	<polygon style="fill:#F6C358;" points="295.159,355.741 276.765,355.741 268.038,376.294 286.432,376.294 	"/>
</g>
<g>
	<polygon style="fill:#27A2DB;" points="388.131,355.741 369.737,355.741 361.01,376.294 379.404,376.294 	"/>
	<polygon style="fill:#27A2DB;" points="326.153,355.741 307.754,355.741 299.027,376.294 317.426,376.294 	"/>
</g>
<polygon style="fill:#F6C358;" points="357.142,355.741 338.748,355.741 330.021,376.294 348.415,376.294 "/>
<g>
</g>
<g>
</g>
<g>
</g>
<g>
</g>
<g>
</g>
<g>
</g>
<g>
</g>
<g>
</g>
<g>
</g>
<g>
</g>
<g>
</g>
<g>
</g>
<g>
</g>
<g>
</g>
<g>
</g>
</svg>
