<?xml version="1.0" encoding="iso-8859-1"?>
<!-- Generator: Adobe Illustrator 19.0.0, SVG Export Plug-In . SVG Version: 6.00 Build 0)  -->
<svg version="1.1" id="Capa_1" xmlns="http://www.w3.org/2000/svg" xmlns:xlink="http://www.w3.org/1999/xlink" x="0px" y="0px"
	 viewBox="0 0 468.293 468.293" style="enable-background:new 0 0 468.293 468.293;" xml:space="preserve">
<path style="fill:#1C75A1;" d="M430.595,468.293H37.698c-20.69,0-37.463-16.773-37.463-37.463V193.874
	c0-20.69,16.773-37.463,37.463-37.463h392.897c20.69,0,37.463,16.773,37.463,37.463v236.956
	C468.058,451.52,451.285,468.293,430.595,468.293z"/>
<g>
	<path style="fill:#2D93BA;" d="M108.743,312.349c0-13.397,2.161-26.286,6.069-38.4H0.235v76.805h114.579
		C110.905,338.638,108.743,325.748,108.743,312.349z"/>
	<path style="fill:#2D93BA;" d="M353.481,273.949c3.908,12.114,6.07,25.003,6.07,38.4c0,13.399-2.162,26.289-6.071,38.405h114.578
		v-76.805H353.481z"/>
</g>
<path style="fill:#D5D6DB;" d="M234.146,212.549c-55.03,0-99.802,44.773-99.802,99.802c0,55.03,44.771,99.803,99.802,99.803
	s99.802-44.773,99.802-99.803C333.948,257.322,289.177,212.549,234.146,212.549z"/>
<path style="fill:#EBF0F3;" d="M234.145,231.262c-44.712,0-81.089,36.378-81.089,81.088c0,44.713,36.377,81.09,81.089,81.09
	s81.09-36.377,81.09-81.09C315.235,267.64,278.857,231.262,234.145,231.262z"/>
<path style="fill:#27A2DB;" d="M234.146,262.45c-27.559,0-49.901,22.341-49.901,49.901c0,27.561,22.341,49.902,49.901,49.902
	s49.901-22.341,49.901-49.902C284.047,284.791,261.706,262.45,234.146,262.45z"/>
<g>
	<path style="fill:#E1E6E9;" d="M221.488,266.278c-11.082,0-20.067,8.985-20.067,20.067c0,11.084,8.985,20.069,20.067,20.069
		c11.084,0,20.069-8.985,20.069-20.069C241.556,275.262,232.572,266.278,221.488,266.278z"/>
	<path style="fill:#E1E6E9;" d="M246.881,326.229c-9.46,0-17.13,7.668-17.13,17.128s7.669,17.13,17.13,17.13
		s17.129-7.669,17.129-17.13S256.341,326.229,246.881,326.229z"/>
</g>
<rect x="184.258" y="132.933" style="fill:#3A556A;" width="99.803" height="23.477"/>
<path style="fill:#64798A;" d="M317.821,132.633h-167.35c-10.345,0-18.732-8.386-18.732-18.732v-95.17
	C131.74,8.386,140.126,0,150.471,0h167.35c10.345,0,18.732,8.386,18.732,18.732v95.17
	C336.553,124.247,328.167,132.633,317.821,132.633z"/>
<path style="fill:#EBF0F3;" d="M154.615,97.273v-61.91c0-6.897,5.591-12.488,12.488-12.488H301.19
	c6.897,0,12.488,5.591,12.488,12.488v61.91c0,6.897-5.591,12.488-12.488,12.488H167.103
	C160.206,109.761,154.615,104.17,154.615,97.273z"/>
<path style="fill:#44C4A1;" d="M63.052,188.744c-13.146,0-23.804,10.659-23.804,23.805c0,13.146,10.658,23.805,23.804,23.805
	s23.805-10.659,23.805-23.805C86.857,199.403,76.198,188.744,63.052,188.744z"/>
<g>
	<path style="fill:#D5D6DB;" d="M291.333,60.6H176.96c-3.158,0-5.719,2.558-5.719,5.719c0,3.161,2.561,5.719,5.719,5.719h114.373
		c3.158,0,5.719-2.558,5.719-5.719C297.052,63.157,294.491,60.6,291.333,60.6z"/>
	<path style="fill:#D5D6DB;" d="M291.333,83.474H176.96c-3.158,0-5.719,2.558-5.719,5.719c0,3.161,2.561,5.719,5.719,5.719h114.373
		c3.158,0,5.719-2.558,5.719-5.719C297.052,86.032,294.491,83.474,291.333,83.474z"/>
	<path style="fill:#D5D6DB;" d="M291.333,37.725H176.96c-3.158,0-5.719,2.558-5.719,5.719s2.561,5.719,5.719,5.719h114.373
		c3.158,0,5.719-2.558,5.719-5.719S294.491,37.725,291.333,37.725z"/>
</g>
<g>
</g>
<g>
</g>
<g>
</g>
<g>
</g>
<g>
</g>
<g>
</g>
<g>
</g>
<g>
</g>
<g>
</g>
<g>
</g>
<g>
</g>
<g>
</g>
<g>
</g>
<g>
</g>
<g>
</g>
</svg>
