<?xml version="1.0" encoding="iso-8859-1"?>
<!-- Generator: Adobe Illustrator 19.0.0, SVG Export Plug-In . SVG Version: 6.00 Build 0)  -->
<svg version="1.1" id="Capa_1" xmlns="http://www.w3.org/2000/svg" xmlns:xlink="http://www.w3.org/1999/xlink" x="0px" y="0px"
	 viewBox="0 0 481.405 481.405" style="enable-background:new 0 0 481.405 481.405;" xml:space="preserve">
<path style="fill:#E1E6E9;" d="M444.566,167.133H314.693c0,0,37.463-140.488-41.21-159.844c0,0-34.966-4.995-45.58,9.366v70.556
	c0,10.615-3.122,20.605-8.117,29.971l-75.551,123.005v213.541h169.834h9.366h43.707c19.356,0,36.839-14.985,37.463-34.966
	c0.624-20.605-15.61-36.839-35.59-36.839h29.346c19.98,0,35.59-16.234,35.59-35.59l0,0c0-19.98-16.234-35.59-35.59-35.59h20.605
	c19.356,0,36.839-14.985,37.463-34.966c0.624-20.605-15.61-36.839-35.59-36.839h24.976c19.98,0,35.59-16.234,35.59-35.59l0,0
	C480.78,183.367,464.546,167.133,444.566,167.133z"/>
<path style="fill:#27A2DB;" d="M144.234,237.064v219.161c0,10.615-8.117,18.732-18.732,18.732H18.732
	C8.117,474.957,0,466.84,0,456.225V237.064c0-10.615,8.117-18.732,18.732-18.732h106.771
	C136.117,218.333,144.234,226.45,144.234,237.064z"/>
<circle style="fill:#E1E6E9;" cx="72.429" cy="435.62" r="24.976"/>
<g>
</g>
<g>
</g>
<g>
</g>
<g>
</g>
<g>
</g>
<g>
</g>
<g>
</g>
<g>
</g>
<g>
</g>
<g>
</g>
<g>
</g>
<g>
</g>
<g>
</g>
<g>
</g>
<g>
</g>
</svg>
