<?xml version="1.0" encoding="iso-8859-1"?>
<!-- Generator: Adobe Illustrator 19.0.0, SVG Export Plug-In . SVG Version: 6.00 Build 0)  -->
<svg version="1.1" id="Capa_1" xmlns="http://www.w3.org/2000/svg" xmlns:xlink="http://www.w3.org/1999/xlink" x="0px" y="0px"
	 viewBox="0 0 468.293 468.293" style="enable-background:new 0 0 468.293 468.293;" xml:space="preserve">
<path style="fill:#27A2DB;" d="M468.293,218.094c0-86.876-104.831-157.302-234.146-157.302C104.831,60.791,0,131.218,0,218.094
	s104.831,157.302,234.147,157.302c24.565,0,48.238-2.553,70.486-7.267l42.55,37.793c3.34,2.966,8.623,1.569,10.059-2.661
	l20.746-61.095C432.925,313.38,468.293,268.525,468.293,218.094z"/>
<path style="fill:#2D93BA;" d="M234.148,85.767c123.017,0,223.803,63.747,233.335,144.746c0.479-4.103,0.809-8.234,0.809-12.42
	c0-86.876-104.831-157.302-234.145-157.302C104.831,60.791,0,131.217,0,218.093c0,4.207,0.319,8.363,0.802,12.488
	C10.286,149.55,111.095,85.767,234.148,85.767z"/>
<circle style="fill:#EBF0F3;" cx="103.024" cy="230.213" r="31.22"/>
<path style="fill:#E1E6E9;" d="M71.805,230.187c0,17.242,13.977,31.22,31.22,31.22s31.22-13.977,31.22-31.22H71.805z"/>
<circle style="fill:#EBF0F3;" cx="190.439" cy="230.213" r="31.22"/>
<path style="fill:#E1E6E9;" d="M159.219,230.187c0,17.242,13.977,31.22,31.22,31.22s31.22-13.977,31.22-31.22H159.219z"/>
<circle style="fill:#EBF0F3;" cx="277.854" cy="230.213" r="31.22"/>
<path style="fill:#E1E6E9;" d="M246.634,230.187c0,17.242,13.977,31.22,31.219,31.22c17.242,0,31.22-13.977,31.22-31.22H246.634z"/>
<circle style="fill:#EBF0F3;" cx="365.268" cy="230.213" r="31.22"/>
<path style="fill:#E1E6E9;" d="M334.049,230.187c0,17.242,13.977,31.22,31.22,31.22s31.22-13.977,31.22-31.22H334.049z"/>
<g>
</g>
<g>
</g>
<g>
</g>
<g>
</g>
<g>
</g>
<g>
</g>
<g>
</g>
<g>
</g>
<g>
</g>
<g>
</g>
<g>
</g>
<g>
</g>
<g>
</g>
<g>
</g>
<g>
</g>
</svg>
