<?xml version="1.0" encoding="iso-8859-1"?>
<!-- Generator: Adobe Illustrator 19.0.0, SVG Export Plug-In . SVG Version: 6.00 Build 0)  -->
<svg version="1.1" id="Capa_1" xmlns="http://www.w3.org/2000/svg" xmlns:xlink="http://www.w3.org/1999/xlink" x="0px" y="0px"
	 viewBox="0 0 468.293 468.293" style="enable-background:new 0 0 468.293 468.293;" xml:space="preserve">
<path style="fill:#3A556A;" d="M234.144,224.394c-4.311,0-7.805-3.494-7.805-7.805v-45.927c0-18.076,14.707-32.78,32.78-32.78
	h78.238c12.86,0,23.317-10.457,23.317-23.314s-10.457-23.317-23.317-23.317H99.815c-4.311,0-7.805-3.494-7.805-7.805
	c0-4.311,3.494-7.805,7.805-7.805h237.543c21.463,0,38.927,17.463,38.927,38.927s-17.463,38.924-38.927,38.924H259.12
	c-9.47,0-17.171,7.704-17.171,17.171v45.927C241.949,220.901,238.455,224.394,234.144,224.394z"/>
<path style="fill:#D5D6DB;" d="M368.48,193.026c-24.53,0-46.961,8.885-64.339,23.564H164.152
	c-17.378-14.68-39.809-23.564-64.339-23.564C44.688,193.026,0,237.714,0,292.839s44.688,99.813,99.813,99.813
	c24.53,0,46.961-8.885,64.339-23.564h139.989c17.378,14.68,39.809,23.564,64.339,23.564c55.125,0,99.813-44.688,99.813-99.813
	S423.605,193.026,368.48,193.026z"/>
<g>
	<circle style="fill:#64798A;" cx="99.815" cy="292.839" r="78.049"/>
	<circle style="fill:#64798A;" cx="368.453" cy="292.839" r="78.049"/>
</g>
<polygon style="fill:#FCD462;" points="146.642,277.229 115.422,277.229 115.422,246.01 84.203,246.01 84.203,277.229 
	52.983,277.229 52.983,308.449 84.203,308.449 84.203,339.668 115.422,339.668 115.422,308.449 146.642,308.449 "/>
<g>
	<path style="fill:#27A2DB;" d="M364.065,229.112l-24.551,24.551c-3.933,3.933-1.148,10.659,4.415,10.659l49.103,0
		c5.563,0,8.349-6.726,4.415-10.659l-24.552-24.55C370.456,226.674,366.503,226.674,364.065,229.112z"/>
	<path style="fill:#27A2DB;" d="M364.065,356.565l-24.551-24.551c-3.933-3.933-1.148-10.659,4.415-10.659l49.103,0
		c5.563,0,8.349,6.726,4.415,10.659l-24.552,24.55C370.456,359.004,366.503,359.004,364.065,356.565z"/>
</g>
<g>
	<path style="fill:#44C4A1;" d="M432.206,288.423l-24.55-24.551c-3.933-3.934-10.659-1.148-10.659,4.415l0,49.103
		c0,5.563,6.726,8.349,10.659,4.415l24.55-24.552C434.645,294.815,434.645,290.862,432.206,288.423z"/>
	<path style="fill:#44C4A1;" d="M304.755,288.423l24.551-24.551c3.933-3.933,10.659-1.148,10.659,4.415l-0.001,49.103
		c0,5.563-6.726,8.349-10.659,4.415l-24.55-24.552C302.316,294.814,302.317,290.861,304.755,288.423z"/>
</g>
<g>
</g>
<g>
</g>
<g>
</g>
<g>
</g>
<g>
</g>
<g>
</g>
<g>
</g>
<g>
</g>
<g>
</g>
<g>
</g>
<g>
</g>
<g>
</g>
<g>
</g>
<g>
</g>
<g>
</g>
</svg>
