<?xml version="1.0" encoding="iso-8859-1"?>
<!-- Generator: Adobe Illustrator 19.0.0, SVG Export Plug-In . SVG Version: 6.00 Build 0)  -->
<svg version="1.1" id="Capa_1" xmlns="http://www.w3.org/2000/svg" xmlns:xlink="http://www.w3.org/1999/xlink" x="0px" y="0px"
	 viewBox="0 0 468.293 468.293" style="enable-background:new 0 0 468.293 468.293;" xml:space="preserve">
<path style="fill:#3A556A;" d="M297.936,440.489c0-1.066-0.662-2.02-1.661-2.391c-8.303-3.085-44.904-17.68-44.904-35.219v-75.183
	h-34.449v75.183c0,17.539-36.601,32.134-44.904,35.219c-1,0.371-1.661,1.325-1.661,2.391v24.277c0,1.948,1.579,3.527,3.527,3.527
	h120.525c1.948,0,3.527-1.579,3.527-3.527L297.936,440.489z"/>
<g>
	<path style="fill:#64798A;" d="M331.107,153.736l0,58.857c0,52.507-40.749,97.286-93.219,99.271
		c-55.161,2.087-100.702-42.184-100.702-96.89v-61.238c0-5.637-4.57-10.206-10.206-10.206h0c-5.637,0-10.206,4.57-10.206,10.206
		l0,58.357c0,63.563,49.332,117.769,112.849,120.169c66.774,2.522,121.897-51.064,121.897-117.288v-61.238
		c0-5.637-4.57-10.206-10.206-10.206h0C335.677,143.53,331.107,148.1,331.107,153.736z"/>
	<path style="fill:#64798A;" d="M288.258,22.439C274.431,8.564,255.294,0,234.148,0C191.855,0,157.6,34.305,157.6,76.549v133.957
		c0,42.294,34.255,76.549,76.548,76.549c42.292,0,76.548-34.255,76.548-76.549V76.549C310.695,55.45,302.131,36.314,288.258,22.439z
		"/>
</g>
<g>
	<path style="fill:#E1E6E9;" d="M217.324,143.528c0,6.651-5.359,11.961-11.961,11.961h-42.979c-1.722,0-3.301-0.334-4.784-1.005
		v-21.912c1.483-0.669,3.062-1.005,4.784-1.005h42.979C211.965,131.567,217.324,136.926,217.324,143.528z"/>
	<path style="fill:#E1E6E9;" d="M203.29,95.685c0,6.651-5.359,11.961-11.961,11.961h-28.945c-1.722,0-3.301-0.335-4.784-1.005V84.73
		c1.483-0.67,3.062-1.005,4.784-1.005h28.945C197.931,83.725,203.29,89.084,203.29,95.685z"/>
	<path style="fill:#E1E6E9;" d="M203.29,191.37c0,6.651-5.359,11.961-11.961,11.961h-28.945c-1.722,0-3.301-0.334-4.784-1.005
		v-21.912c1.483-0.669,3.062-1.005,4.784-1.005h28.945C197.931,179.409,203.29,184.768,203.29,191.37z"/>
	<path style="fill:#E1E6E9;" d="M250.972,143.528c0,6.651,5.359,11.961,11.961,11.961h42.979c1.722,0,3.301-0.334,4.784-1.005
		v-21.912c-1.483-0.669-3.062-1.005-4.784-1.005l-42.979,0C256.331,131.567,250.972,136.926,250.972,143.528z"/>
	<path style="fill:#E1E6E9;" d="M265.006,95.685c0,6.651,5.359,11.961,11.961,11.961h28.945c1.722,0,3.301-0.335,4.784-1.005V84.73
		c-1.483-0.67-3.062-1.005-4.784-1.005h-28.945C270.365,83.725,265.006,89.084,265.006,95.685z"/>
	<path style="fill:#E1E6E9;" d="M265.006,191.37c0,6.651,5.359,11.961,11.961,11.961h28.945c1.722,0,3.301-0.334,4.784-1.005
		v-21.912c-1.483-0.669-3.062-1.005-4.784-1.005h-28.945C270.365,179.409,265.006,184.768,265.006,191.37z"/>
</g>
<g>
</g>
<g>
</g>
<g>
</g>
<g>
</g>
<g>
</g>
<g>
</g>
<g>
</g>
<g>
</g>
<g>
</g>
<g>
</g>
<g>
</g>
<g>
</g>
<g>
</g>
<g>
</g>
<g>
</g>
</svg>
