<?xml version="1.0" encoding="iso-8859-1"?>
<!-- Generator: Adobe Illustrator 19.0.0, SVG Export Plug-In . SVG Version: 6.00 Build 0)  -->
<svg version="1.1" id="Capa_1" xmlns="http://www.w3.org/2000/svg" xmlns:xlink="http://www.w3.org/1999/xlink" x="0px" y="0px"
	 viewBox="0 0 468.293 468.293" style="enable-background:new 0 0 468.293 468.293;" xml:space="preserve">
<g>
	<path style="fill:#D5D6DB;" d="M371.701,53.966H96.592V18.732C96.592,8.386,104.978,0,115.323,0h237.646
		c10.345,0,18.732,8.386,18.732,18.732V53.966z"/>
	<path style="fill:#D5D6DB;" d="M352.969,468.293H115.323c-10.345,0-18.732-8.386-18.732-18.732v-59.872h275.109v59.872
		C371.701,459.906,363.314,468.293,352.969,468.293z"/>
</g>
<rect x="96.593" y="53.966" style="fill:#27A2DB;" width="275.106" height="335.722"/>
<g>
	<path style="fill:#3A556A;" d="M242.497,33.227h-68.683c-3.448,0-6.244-2.795-6.244-6.244v0c0-3.448,2.795-6.244,6.244-6.244
		h68.683c3.448,0,6.244,2.795,6.244,6.244v0C248.741,30.431,245.945,33.227,242.497,33.227z"/>
	<circle style="fill:#3A556A;" cx="270.698" cy="26.98" r="6.244"/>
	<circle style="fill:#3A556A;" cx="294.481" cy="26.98" r="6.244"/>
	<path style="fill:#3A556A;" d="M268.54,421.186c0-6.897-5.591-12.488-12.488-12.488H212.24c-6.896,0-12.488,5.591-12.488,12.488
		v7.805h68.788V421.186z"/>
</g>
<path style="fill:#2F4859;" d="M199.752,428.991v7.805c0,6.897,5.591,12.488,12.488,12.488h43.812
	c6.896,0,12.488-5.591,12.488-12.488v-7.805H199.752z"/>
<g>
	<path style="fill:#2D93BA;" d="M338.115,136.558l-49.951-49.951c-2.439-2.439-6.39-2.439-8.829,0s-2.439,6.39,0,8.829
		l49.951,49.951c1.22,1.22,2.817,1.829,4.415,1.829c1.598,0,3.195-0.61,4.415-1.829
		C340.554,142.949,340.554,138.997,338.115,136.558z"/>
	<path style="fill:#2D93BA;" d="M280.853,136.564c-2.439-2.439-6.39-2.439-8.829,0s-2.439,6.39,0,8.829l51.018,51.018
		c1.22,1.22,2.817,1.829,4.415,1.829c1.598,0,3.195-0.61,4.415-1.829c2.439-2.439,2.439-6.39,0-8.829L280.853,136.564z"/>
	<path style="fill:#2D93BA;" d="M231.969,87.68c-2.439-2.439-6.39-2.439-8.829,0c-2.439,2.439-2.439,6.39,0,8.829l23.902,23.902
		c1.22,1.22,2.817,1.829,4.415,1.829s3.195-0.61,4.415-1.829c2.439-2.439,2.439-6.39,0-8.829L231.969,87.68z"/>
</g>
<g>
</g>
<g>
</g>
<g>
</g>
<g>
</g>
<g>
</g>
<g>
</g>
<g>
</g>
<g>
</g>
<g>
</g>
<g>
</g>
<g>
</g>
<g>
</g>
<g>
</g>
<g>
</g>
<g>
</g>
</svg>
